<svg fill="none" height="29" viewBox="0 0 32 29" width="32" xmlns="http://www.w3.org/2000/svg">
  <path
    d="m15.5245 1.08156c.1496-.460658.8014-.460652.951 0l2.8657 8.81966c.2008.61808.7768 1.03648 1.4266 1.03648h9.2735c.4844 0 .6858.6198.2939.9045l-7.5024 5.4509c-.5258.3819-.7457 1.059-.5449 1.677l2.8656 8.8197c.1497.4606-.3775.8437-.7694.559l-7.5024-5.4509c-.5258-.3819-1.2376-.3819-1.7634 0l-7.50243 5.4509c-.39186.2847-.91909-.0984-.76942-.559l2.86568-8.8197c.20081-.618-.01917-1.2951-.54491-1.677l-7.50245-5.4509c-.39185-.2847-.19046-.9045.2939-.9045h9.27353c.6498 0 1.2258-.4184 1.4266-1.03648z"
    stroke="#1a237e"
  />
</svg>
